<svg width="512" height="256" viewBox="0 0 512 256" fill="none" xmlns="http://www.w3.org/2000/svg">
<path fill="#7793D5" fill-rule="evenodd" clip-rule="evenodd" d="M40.8 16.2V71.4C40.8 78.6 40.0 83.7 38.5 86.6C37.0 89.5 34.4 91.0 30.5 91.0C27.8 91.0 24.9 89.9 21.8 87.8L15.5 98.8V104.8C20.0 107.6 25.2 109.0 30.5 109.0C37.6 109.0 43.3 106.5 47.6 101.4C49.9 98.8 51.5 95.5 52.3 92.1C53.3 88.9 53.7 83.9 53.7 77.4V16.2H40.8Z M268.1 14.5C260.8 14.5 254.7 16.7 249.8 21.0C247.5 23.0 245.6 25.4 244.3 28.2C243.0 31.0 242.4 34.0 242.5 37.1C242.5 39.1 242.4 41.1 242.5 43.1C242.5 52.6 248.3 59.8 260 64.8L268.2 68.2C270.1 69.0 271.9 70.0 273.7 71.1C275.1 72.0 276.4 73.1 277.5 74.3C278.4 75.5 279.2 76.8 279.6 78.1C279.8 78.7 279.9 79.3 280.1 79.9C279.9 80.7 279.7 81.5 279.4 82.2C278.7 84.0 277.7 85.6 276.3 86.9C275.0 88.3 273.5 89.3 271.8 90.0C270.0 90.7 268.2 91.0 266.4 91.0C261.3 91.0 257.4 89.1 254.8 85.4C253.3 83.5 252.3 80.1 251.7 75.0L238.7 77.9V83.9C238.7 83.9 242.8 98.1 247.5 102.4C252.4 106.8 258.5 109.0 265.9 109.0C269.5 109.1 273.1 108.5 276.4 107.1C279.8 105.8 282.9 103.8 285.4 101.3C290.7 96.2 293.3 89.7 293.3 81.8C293.3 81.4 293.3 75.6 293.3 75.6C293.3 75.6 291.7 65.2 288.5 61.0C285.3 57.0 280.2 53.5 273.3 50.7L264.8 47.3C260.1 45.3 257.1 42.9 256.0 40.0C256.2 39.7 256.3 39.3 256.4 39.0C257.0 37.7 257.9 36.6 259.1 35.7C261.6 33.6 264.7 32.5 268 32.7C270.4 32.5 272.9 33.2 275.1 34.4C276.8 35.4 278.7 37.7 280.6 41.0L291.1 34.9V28.9C285.6 19.3 277.9 14.5 268.1 14.5V14.5Z M417.4 147.5H408.9V195.7H417.4V147.5Z M460.7 175.1C460.8 178.1 460.3 181.1 459.4 184.0C458.5 186.8 457.0 189.3 454.9 191.4C453.2 193.0 451.2 194.2 449.0 194.8C446.5 195.5 444.0 195.8 441.4 195.7H425.4V147.5H441.0C443.7 147.4 446.4 147.7 449.0 148.3C451.4 149.0 453.6 150.4 455.3 152.2C457.2 154.2 458.5 156.5 459.4 159.1C460.3 162.2 460.8 165.5 460.7 168.7C460.8 170.9 460.8 173.0 460.7 175.1ZM440.3 182.6H433.9V160.7H437.8C440.1 160.6 442.4 160.7 444.7 161.1C446.2 161.4 447.6 162.0 448.7 163.1C449.8 164.2 450.6 165.6 451.1 167.1C451.5 168.6 451.7 170.1 451.9 171.6C451.7 173.2 451.5 174.8 451.1 176.4C450.7 177.9 449.9 179.3 448.9 180.4C447.9 181.3 446.7 181.9 445.4 182.2C443.7 182.5 442.0 182.6 440.3 182.6Z M500 182.6H476.4V177.1H497.6V164.0H476.4V160.7H499.2V147.5H467.9V195.7H500V182.6Z M105.7 53.9C100.7 48.6 95.1 46.0 88.9 46.2C85.5 46.1 82.1 46.8 79.0 48.2C75.8 49.6 73.1 51.7 70.8 54.3C65.5 60.2 63.6 67.7 63.6 75.4C63.6 75.6 63.6 80.3 63.6 80.4C63.6 80.6 63.6 80.3 63.6 80.4C63.6 80.6 63.6 80.3 63.6 80.4C63.6 80.6 63.6 80.3 63.6 80.4C63.6 80.6 63.6 80.3 63.6 80.4C63.6 80.6 63.6 80.1 63.6 80.4C63.6 80.5 63.6 80.4 63.6 80.4C63.6 80.6 63.6 80.3 63.6 80.4C63.6 80.6 63.6 80.3 63.6 80.4C63.6 80.6 63.6 80.3 63.6 80.4C63.6 80.6 63.6 80.3 63.6 80.4C63.6 88.7 66.0 95.5 70.8 101.0C73.1 103.6 76.0 105.7 79.1 107.1C82.3 108.5 85.8 109.2 89.3 109.1C95.1 109.1 100.6 106.7 105.8 101.9V107.5H118.2V47.7H105.7V53.9ZM102.3 87.2C104.5 84.4 105.9 81.1 106.4 77.7C105.9 74.2 104.5 70.9 102.3 68.2C100.9 66.6 99.2 65.4 97.3 64.5C95.4 63.7 93.3 63.3 91.2 63.4C89.2 63.3 87.2 63.8 85.3 64.6C83.5 65.4 81.8 66.7 80.5 68.2C78.3 70.8 76.9 74.0 76.4 77.4C76.9 81.2 78.2 84.4 80.4 87.0C81.7 88.6 83.3 89.8 85.2 90.7C87.0 91.5 89.1 91.9 91.1 91.9C93.2 92.0 95.3 91.6 97.2 90.8C99.1 89.9 100.9 88.7 102.3 87.2Z M122.0 47.7V53.7L149.7 111.2L177.6 53.7V47.7H163.7L149.8 77.9L135.9 47.7H122.0Z M218.0 53.9C213.1 48.7 207.5 46.2 201.2 46.2C197.8 46.1 194.4 46.8 191.3 48.2C188.1 49.6 185.3 51.6 183.1 54.2C178.3 59.6 175.9 66.3 175.9 74.4C175.9 76.4 175.9 78.4 175.9 80.4C175.9 88.6 178.3 95.5 183.1 100.9C185.4 103.6 188.2 105.6 191.4 107.0C194.6 108.4 198.1 109.1 201.5 109.0C207.4 109.0 212.9 106.6 218.0 101.8V107.5H230.5V47.7H218.0V53.9ZM214.6 87.2C216.8 84.4 218.2 81.1 218.7 77.7C218.2 74.2 216.8 70.9 214.6 68.2C213.2 66.6 211.5 65.4 209.6 64.5C207.7 63.7 205.6 63.3 203.5 63.4C201.5 63.3 199.5 63.8 197.6 64.6C195.8 65.4 194.1 66.7 192.8 68.2L192.8 68.2C190.6 70.8 189.2 74.0 188.7 77.4C189.2 81.2 190.5 84.4 192.7 87.0C194.0 88.6 195.6 89.8 197.5 90.7C199.3 91.5 201.4 91.9 203.4 91.9C205.5 92.0 207.6 91.6 209.5 90.8C211.4 90.0 213.2 88.7 214.6 87.2Z M327.6 46.2C323.7 46.1 319.9 46.8 316.3 48.2C312.7 49.6 309.5 51.7 306.7 54.4C304.0 57.1 301.8 60.2 300.3 63.7C298.9 67.2 298.2 71.0 298.2 74.7C298.2 76.8 298.2 78.9 298.2 80.9C298.1 84.6 298.9 88.3 300.3 91.7C301.7 95.2 303.9 98.4 306.6 100.9C312.2 106.3 319.2 109.0 327.5 109.0C332.8 108.9 337.9 107.6 342.6 105.1V82.7C339.6 86.3 337.0 88.7 334.8 90.0C332.4 91.3 329.7 92.0 326.9 91.9C324.8 92.0 322.6 91.6 320.6 90.7C318.6 89.9 316.8 88.6 315.4 87.0C313.0 84.4 311.5 81.2 311.1 77.7C311.6 74.2 313.1 70.9 315.6 68.3C317.0 66.7 318.8 65.4 320.8 64.6C322.8 63.7 325.0 63.3 327.2 63.4C329.9 63.3 332.6 64.0 335.0 65.4C337.2 66.7 339.8 69.0 342.6 72.5V50.0C338.0 47.5 332.8 46.1 327.6 46.2Z M361.4 107.5V79.6C361.4 69.3 364.8 64.2 371.5 64.2C374.0 64.3 376.5 65.2 378.4 66.7L384.1 55.4V49.4C384.1 49.4 377.5 46.3 373.9 46.2C371.6 46.1 369.5 46.6 367.5 47.5C365.2 48.8 363.1 50.5 361.4 52.5V47.7H349.0V107.5H361.4Z M387.3 47.7V107.5H399.7V47.7H387.3Z M401.6 25.3C401.6 27.3 401.6 29.3 401.6 31.3C401.6 32.4 401.4 33.5 401.0 34.4C400.6 35.4 400.0 36.3 399.2 37.1C398.5 37.8 397.6 38.5 396.6 38.9C395.7 39.3 394.6 39.5 393.5 39.5C392.5 39.5 391.4 39.3 390.4 38.9C389.4 38.4 388.5 37.8 387.8 37.1L387.8 37.1C387.0 36.3 386.4 35.4 386.0 34.4C385.6 33.4 385.4 32.4 385.4 31.3C385.4 29.3 385.4 27.3 385.4 25.3C385.4 24.2 385.6 23.2 386.0 22.2C386.4 21.2 387.0 20.4 387.8 19.6C388.5 18.9 389.4 18.3 390.4 17.9C391.4 17.5 392.4 17.3 393.5 17.3C394.6 17.3 395.6 17.5 396.6 17.9C397.6 18.3 398.5 18.9 399.2 19.6C400.0 20.4 400.6 21.3 401.0 22.2C401.4 23.2 401.6 24.3 401.6 25.3Z M422.2 136.8V101.4L422.2 101.4C427.2 106.5 432.8 109.0 439.1 109.0C442.5 109.1 445.9 108.4 449.0 107.0C452.2 105.6 455.0 103.6 457.2 101.0C462.0 95.6 464.4 88.9 464.4 80.8C464.4 78.8 464.4 76.8 464.4 74.8C464.4 66.6 462.0 59.8 457.1 54.3C454.9 51.7 452.1 49.6 448.9 48.2C445.8 46.8 442.3 46.1 438.9 46.2C432.7 46.2 427.1 48.6 422.2 53.5V47.7H409.8V136.8H422.2ZM447.4 87.0C446.1 88.6 444.5 89.9 442.7 90.7C440.8 91.5 438.8 92.0 436.8 91.9C434.7 92.0 432.6 91.6 430.7 90.8C428.8 89.9 427.1 88.7 425.7 87.1C423.5 84.4 422.1 81.2 421.6 77.8C422.1 73.9 423.4 70.7 425.7 68.1C427.1 66.6 428.8 65.3 430.8 64.5C432.7 63.7 434.7 63.3 436.8 63.4C438.9 63.3 440.9 63.8 442.7 64.6C444.6 65.5 446.2 66.7 447.5 68.3C449.8 70.9 451.1 74.1 451.6 78.0C451.1 81.3 449.7 84.5 447.4 87.0L447.4 87.0Z M495.4 47.7H485.7V27.9H473.3V47.7H468.0V65.3H473.3V107.5H485.7V65.3H495.4V47.7Z M36.4 181.5C36.8 181.2 37.1 181.0 37.3 180.6C36.5 179.9 35.6 179.4 34.6 179.1C33.6 178.7 31.3 178.1 27.8 177.2C23.2 176.1 20.0 174.7 18.2 173.1C16.9 172.0 16.0 170.7 15.3 169.3C14.6 167.8 14.3 166.2 14.3 164.6C14.3 162.6 14.3 160.6 14.3 158.6C14.3 156.4 14.9 154.3 16.1 152.6C17.4 150.6 19.2 149.1 21.4 148.3C24.0 147.2 26.8 146.7 29.7 146.8C34.9 146.8 38.9 148.0 41.6 150.3C42.9 151.5 44.0 152.9 44.7 154.5C45.4 156.1 45.8 159.6 45.8 159.6C45.8 159.6 45.8 161.6 45.8 165.6L39.4 165.9C39.9 166.0 40.3 166.2 40.7 166.4C42.6 167.4 44.2 168.9 45.3 170.7C46.5 172.8 47.1 175.1 47.0 177.5C47.0 179.5 47.0 181.5 47.0 183.5C46.9 185.9 46.2 188.2 45.0 190.2C43.6 192.3 41.6 194.0 39.3 194.9C36.4 196.0 33.3 196.5 30.1 196.4C24.8 196.4 20.7 195.2 17.9 192.7C15.0 190.3 13.3 186.7 12.8 182.0V176.0L21.0 175.2C21.3 177.5 22.4 179.7 24.1 181.3C25.8 182.7 28.0 183.4 30.2 183.2C33.0 183.2 35.0 182.7 36.4 181.5ZM35.0 161.3C36.0 162.3 36.8 163.5 37.1 165.0C35.3 164.3 33.4 163.8 31.5 163.4C28.1 162.6 25.7 161.8 24.4 161.0C26.0 160.2 27.8 159.8 29.6 159.9C31.5 159.7 33.4 160.2 35.0 161.3Z M52.9 170.1V147.5H61.4V173.2C61.5 174.6 61.6 176.0 61.7 177.4C62.1 179.1 63.0 180.5 64.3 181.6C66.0 182.7 68.0 183.2 69.9 183.1C71.9 183.3 73.8 182.7 75.4 181.7C76.6 180.8 77.4 179.5 77.6 178.0C77.8 176.4 77.9 174.7 78.0 173.1V147.5H86.5V169.7C86.6 172.1 86.5 174.5 86.5 176.9C86.5 180.1 86.3 183.3 85.8 186.4C85.4 188.3 84.5 190.2 83.3 191.7C81.9 193.2 80.2 194.4 78.3 195.1C75.7 196.1 73.0 196.5 70.2 196.4C66.2 196.4 63.1 195.9 61.1 195.0C59.2 194.2 57.5 193.0 56.1 191.4C55.0 190.0 54.2 188.4 53.8 186.7C53.2 183.5 52.9 180.2 52.9 176.9C52.9 174.6 52.9 172.4 52.9 170.1Z M104.0 195.7V178.1H105.7C107.1 178.0 108.6 178.2 110.0 178.6C111 178.9 111.8 179.5 112.5 180.3C114.1 182.3 115.6 184.4 117.0 186.5L123.1 195.7H133.3V189.7L128.2 181.5C127.0 179.4 125.6 177.4 124.1 175.5C125.3 174.9 126.3 174.1 127.1 173.2C129.0 171.0 130.0 168.2 129.9 165.4C129.9 163.4 130.0 161.3 129.9 159.4C129.9 157.0 129.3 154.7 128.1 152.7C126.9 150.9 125.2 149.4 123.2 148.7C121.1 147.9 117.9 147.5 113.4 147.5H95.5V195.7H104.0ZM110.3 165.4H104.0V160.7H110.6C114.0 160.7 116.1 160.7 116.8 160.8C118.0 161.0 119.2 161.6 120.0 162.5C120.1 162.6 120.2 162.8 120.3 162.9C120.3 163.0 120.3 163.0 120.3 163.1C119.7 163.9 118.9 164.5 117.9 164.8C116.9 165.2 114.3 165.4 110.3 165.4Z M132.5 147.5H141.8L152.4 178.7L162.7 147.5H171.7V153.5L156.7 195.7H147.6L132.5 153.5V147.5Z M184.3 147.5H175.8V195.7H184.3V147.5Z M188.1 147.5H197.3L208.0 178.7L218.3 147.5H227.3V153.5L212.2 195.7H203.1L188.1 153.5V147.5Z M248.4 147.5H239.4L223.0 189.7V195.7H232.0L235.5 186.1H252.3L256.0 195.7H265.2V189.7L248.4 147.5ZM243.8 163.4L240.3 173.0H247.3L243.8 163.4Z M299.6 182.6H278.5V147.9H270.0V195.7H299.6V182.6Z M340.5 180.2H349.3C348.2 181.0 346.9 181.6 345.6 182.1C343.9 182.8 342.1 183.1 340.3 183.1C338.6 183.2 337.0 182.9 335.5 182.2C334.0 181.6 332.6 180.6 331.5 179.4C329.8 177.4 328.8 174.7 328.4 171.2C328.8 168.0 329.8 165.5 331.5 163.6C332.6 162.4 334.0 161.5 335.5 160.9C337.1 160.3 338.7 160.0 340.4 160.1C342.5 160.0 344.7 160.6 346.5 161.9C348.1 163.1 349.3 164.8 349.8 166.8L358.3 165.2V159.2C358.3 159.2 355.6 152.3 352.6 150.1C349.7 147.9 345.6 146.8 340.4 146.8C336.9 146.7 333.4 147.4 330.3 148.9C326.8 150.6 324.0 153.4 322.2 156.8C320.3 160.4 319.5 168.5 319.5 168.5C319.5 168.5 319.4 172.5 319.5 174.5C319.4 178.3 320.3 182.2 321.9 185.7C323.5 189.0 326.1 191.8 329.3 193.6C332.8 195.5 336.8 196.5 340.8 196.4C344.3 196.4 347.8 195.7 351.1 194.4C353.9 193.4 356.6 191.9 358.8 189.9V167.1H340.5V180.2Z M366.6 170.0C366.5 172.3 366.6 174.6 366.6 176.9C366.6 180.2 366.8 183.5 367.4 186.7C367.9 188.4 368.7 190.0 369.8 191.4C371.2 193.0 372.8 194.2 374.7 195.0C376.8 195.9 379.9 196.4 383.9 196.4C386.6 196.5 389.4 196.1 392.0 195.1C393.9 194.4 395.6 193.2 396.9 191.7C398.2 190.2 399.1 188.3 399.5 186.4C400.0 183.3 400.2 180.1 400.2 176.9C400.2 174.5 400.2 172.1 400.2 169.7V147.5H391.7V173.1C391.6 174.7 391.5 176.4 391.3 178.0C391.0 179.5 390.3 180.8 389.1 181.7C387.5 182.7 385.6 183.3 383.6 183.1C381.6 183.2 379.7 182.7 378.0 181.6C376.7 180.5 375.7 179.1 375.4 177.4C375.3 176.0 375.1 174.6 375.1 173.2V147.5H366.6V170.0Z" />
<path d="M40.851 16.2V71.4C40.851 78.6573 40.0783 83.7403 38.533 86.649C37.061 89.5603 34.4123 91.0153 30.587 91.014C27.8643 91.014 24.9397 89.9643 21.813 87.865L15.522 98.865C20.06 101.627 25.2734 103.081 30.586 103.065C37.6853 103.065 43.3873 100.542 47.692 95.496C49.9767 92.8012 51.5847 89.5997 52.382 86.158C53.3013 82.9173 53.7613 78 53.762 71.406V16.2H40.851ZM268.111 14.543C260.827 14.543 254.738 16.7163 249.845 21.063C247.503 23.0286 245.629 25.4917 244.36 28.2731C243.09 31.0545 242.457 34.084 242.506 37.141C242.506 46.647 248.337 53.8666 260 58.8L268.222 62.226C270.141 63.0334 271.987 64.0036 273.74 65.126C275.152 66.0234 276.425 67.1216 277.52 68.386C278.473 69.5084 279.203 70.8021 279.672 72.198C280.146 73.6702 280.379 75.2094 280.362 76.756C280.424 78.6397 280.104 80.5165 279.421 82.2733C278.738 84.0301 277.707 85.6304 276.389 86.978C275.092 88.3027 273.536 89.3448 271.817 90.0388C270.098 90.7329 268.254 91.0639 266.401 91.011C261.324 91.011 257.462 89.1693 254.813 85.486C253.341 83.5713 252.311 80.109 251.723 75.099L238.7 77.976C239.877 85.932 242.838 92.1016 247.584 96.485C252.403 100.869 258.509 103.061 265.904 103.06C269.522 103.156 273.122 102.52 276.488 101.191C279.854 99.8618 282.918 97.8666 285.494 95.325C290.717 90.205 293.328 83.722 293.329 75.876C293.495 70.5244 291.798 65.2811 288.529 61.041C285.329 57.0076 280.271 53.5913 273.354 50.792L264.854 47.311C258.674 44.7696 255.584 41.4176 255.583 37.255C255.559 35.816 255.865 34.3905 256.477 33.088C257.089 31.7855 257.992 30.6406 259.115 29.741C261.601 27.6674 264.765 26.5845 268 26.7C270.494 26.5937 272.965 27.2075 275.119 28.468C276.884 29.5 278.741 31.71 280.692 35.098L291.121 28.91C285.603 19.3333 277.933 14.545 268.111 14.545V14.543ZM417.422 189.736V147.589H408.922V189.736H417.422ZM425.49 189.736H441.484C444.022 189.812 446.556 189.512 449.006 188.845C451.231 188.202 453.276 187.05 454.979 185.481C457.05 183.391 458.595 180.839 459.487 178.035C460.407 175.136 460.843 172.106 460.779 169.065C460.863 165.691 460.397 162.325 459.4 159.1C458.572 156.559 457.2 154.229 455.381 152.271C453.651 150.433 451.46 149.092 449.035 148.39C446.412 147.767 443.718 147.496 441.024 147.585H425.49V189.732V189.736ZM437.808 154.719C440.141 154.641 442.477 154.774 444.786 155.119C446.255 155.403 447.617 156.09 448.719 157.102C449.85 158.241 450.679 159.644 451.131 161.185C451.793 163.628 452.084 166.156 451.993 168.685C452.072 171.286 451.782 173.885 451.131 176.404C450.761 177.932 449.993 179.336 448.906 180.472C447.926 181.333 446.747 181.936 445.475 182.226C443.782 182.55 442.058 182.684 440.335 182.626H433.989V154.719H437.808ZM500 189.736V182.636H476.485V171.164H497.618V164.064H476.485V154.72H499.2V147.59H467.986V189.737H500V189.736Z" fill="#FEFEFE"/>
<path d="M105.8 54C100.8 48.6667 95.1897 46.0883 88.969 46.265C85.5444 46.1958 82.1468 46.8829 79.0182 48.2773C75.8896 49.6717 73.1071 51.739 70.869 54.332C66.049 59.7107 63.6393 66.433 63.64 74.499C63.64 82.713 66.0497 89.564 70.869 95.052C73.1636 97.6634 76.0035 99.7394 79.1882 101.133C82.3729 102.527 85.8247 103.205 89.3 103.119C95.1853 103.119 100.685 100.725 105.8 95.936V101.572H118.271V47.7H105.778V53.943L105.8 54ZM80.56 62.284C81.8725 60.7309 83.5138 59.489 85.3652 58.6481C87.2167 57.8072 89.2318 57.3884 91.265 57.422C93.3457 57.355 95.4152 57.7516 97.3237 58.583C99.2323 59.4144 100.932 60.6598 102.3 62.229C105.21 65.7239 106.723 70.1718 106.549 74.716C106.723 79.2592 105.209 83.706 102.3 87.2C100.906 88.763 99.1842 89.9992 97.2576 90.8206C95.331 91.642 93.247 92.0283 91.154 91.952C89.1145 91.9912 87.0925 91.5692 85.2389 90.7176C83.3853 89.8661 81.7479 88.6069 80.449 87.034C77.6897 83.7926 76.31 79.5926 76.31 74.434C76.1746 69.9977 77.6889 65.6687 80.56 62.284ZM122.034 47.7L149.734 105.217L177.657 47.7H163.7L149.85 77.923L135.94 47.7H122.034ZM218.083 53.943C213.117 48.7863 207.507 46.208 201.253 46.208C197.828 46.1388 194.431 46.8259 191.302 48.2203C188.174 49.6147 185.391 51.682 183.153 54.275C178.333 59.6537 175.923 66.376 175.924 74.442C175.924 82.656 178.334 89.507 183.153 94.995C185.448 97.6064 188.288 99.6824 191.472 101.076C194.657 102.47 198.109 103.148 201.584 103.062C207.469 103.062 212.969 100.668 218.084 95.879V101.515H230.555V47.7H218.083V53.943ZM192.865 62.286C194.177 60.7335 195.817 59.492 197.668 58.6512C199.518 57.8103 201.533 57.3912 203.565 57.424C205.646 57.3569 207.716 57.7534 209.625 58.5848C211.534 59.4162 213.234 60.6617 214.602 62.231C217.511 65.7261 219.025 70.1739 218.851 74.718C219.025 79.2622 217.511 83.71 214.602 87.205C213.208 88.768 211.486 90.0042 209.559 90.8255C207.632 91.6469 205.548 92.0332 203.455 91.957C201.415 91.9962 199.393 91.5743 197.54 90.7227C195.686 89.8712 194.049 88.6119 192.75 87.039C189.991 83.7977 188.612 79.5977 188.611 74.439C188.474 70.0011 189.988 65.6702 192.86 62.284L192.865 62.286ZM327.629 46.206C323.774 46.1169 319.941 46.8048 316.357 48.2287C312.774 49.6526 309.513 51.7833 306.771 54.494C304.019 57.1063 301.842 60.2637 300.378 63.7647C298.915 67.2656 298.197 71.0332 298.271 74.827C298.183 78.5878 298.884 82.3253 300.329 85.7988C301.773 89.2722 303.929 92.4046 306.658 94.994C312.25 100.373 319.203 103.062 327.517 103.061C332.801 102.999 337.99 101.652 342.637 99.138V82.728C339.657 86.338 337.063 88.769 334.856 90.021C332.44 91.3446 329.719 92.0115 326.965 91.955C324.806 92.0187 322.659 91.6174 320.669 90.7784C318.679 89.9393 316.893 88.6821 315.432 87.092C312.389 83.6833 310.786 79.2271 310.962 74.661C310.82 70.1026 312.487 65.673 315.6 62.34C317.08 60.7396 318.883 59.4731 320.891 58.6251C322.899 57.777 325.064 57.3669 327.243 57.422C329.97 57.3563 332.663 58.0446 335.024 59.411C337.267 60.701 339.806 63.077 342.639 66.539V50.018C338.036 47.5037 332.874 46.1924 327.629 46.206ZM349.018 101.513H361.433V73.613C361.433 63.373 364.818 58.253 371.587 58.253C374.098 58.3471 376.515 59.2373 378.487 60.795L384.171 49.413C381.105 47.4315 377.556 46.325 373.907 46.213C371.694 46.1575 369.5 46.631 367.507 47.594C365.226 48.8865 363.175 50.548 361.437 52.511V47.7H349.018V101.515V101.513ZM387.347 47.7V101.515H399.762V47.7H387.347ZM387.847 31.124C388.59 31.8914 389.483 32.4982 390.47 32.9069C391.457 33.3156 392.518 33.5174 393.586 33.5C394.647 33.5207 395.7 33.3201 396.678 32.911C397.657 32.5019 398.54 31.8933 399.27 31.124C400.037 30.3788 400.643 29.4846 401.051 28.4964C401.459 27.5082 401.66 26.447 401.643 25.378C401.664 24.3167 401.463 23.2627 401.055 22.283C400.646 21.3033 400.038 20.4193 399.27 19.687C398.522 18.934 397.632 18.3365 396.651 17.9288C395.671 17.521 394.62 17.3111 393.559 17.3111C392.497 17.3111 391.446 17.521 390.466 17.9288C389.485 18.3365 388.595 18.934 387.847 19.687C387.088 20.4148 386.486 21.2902 386.078 22.2595C385.669 23.2288 385.464 24.2713 385.474 25.323C385.453 26.4 385.652 27.4701 386.059 28.4673C386.467 29.4646 387.074 30.368 387.843 31.122L387.847 31.124ZM422.258 95.493C427.225 100.54 432.853 103.063 439.144 103.062C442.565 103.141 445.96 102.463 449.089 101.079C452.218 99.694 455.002 97.6358 457.244 95.051C462.063 89.673 464.472 82.9507 464.473 74.884C464.473 66.6333 462.045 59.8 457.189 54.384C454.947 51.7457 452.143 49.6422 448.982 48.2273C445.822 46.8125 442.385 46.1222 438.924 46.207C432.707 46.207 427.152 48.6567 422.259 53.556V47.7H409.839V130.8H422.254V95.491L422.258 95.493ZM447.476 87.093C446.182 88.6539 444.552 89.9021 442.708 90.7442C440.864 91.5863 438.853 92.0006 436.826 91.956C434.744 92.0305 432.672 91.6374 430.762 90.8055C428.852 89.9736 427.153 88.7241 425.79 87.149C422.88 83.6542 421.367 79.2062 421.541 74.662C421.541 69.5053 422.957 65.343 425.79 62.175C427.175 60.6158 428.888 59.3815 430.805 58.5601C432.722 57.7387 434.797 57.3505 436.881 57.423C438.921 57.384 440.943 57.8061 442.796 58.6576C444.65 59.5092 446.288 60.7683 447.587 62.341C450.382 65.583 451.779 69.783 451.78 74.941C451.93 79.3898 450.394 83.731 447.48 87.096L447.476 87.093ZM495.4 59.3V47.7H485.743V27.973H473.33V47.7H468.03V59.3H473.33V101.512H485.746V59.3H495.4ZM17.936 186.79C20.788 189.253 24.8747 190.484 30.196 190.484C33.3207 190.577 36.4331 190.055 39.356 188.946C41.6959 188.012 43.6841 186.369 45.041 184.246C46.298 182.231 46.9917 179.915 47.0497 177.541C47.1077 175.167 46.528 172.82 45.371 170.746C44.2379 168.923 42.6302 167.442 40.72 166.462C37.7914 165.095 34.7123 164.077 31.546 163.429C27.4127 162.452 24.8093 161.513 23.736 160.612C23.344 160.31 23.0263 159.923 22.8074 159.479C22.5884 159.036 22.4741 158.548 22.473 158.053C22.4609 157.539 22.5781 157.03 22.8138 156.573C23.0495 156.116 23.3961 155.725 23.822 155.437C25.5458 154.329 27.5762 153.796 29.622 153.913C31.5251 153.774 33.4199 154.275 35.006 155.336C36.341 156.547 37.1755 158.213 37.346 160.008L45.846 159.634C45.8503 157.875 45.4771 156.136 44.7515 154.534C44.0258 152.932 42.9648 151.505 41.64 150.348C38.97 148.029 34.9933 146.87 29.71 146.87C26.8781 146.796 24.0604 147.294 21.426 148.336C19.2832 149.195 17.4512 150.683 16.172 152.605C14.9823 154.388 14.348 156.484 14.349 158.628C14.3325 160.24 14.6713 161.835 15.3412 163.301C16.0111 164.767 16.9957 166.067 18.225 167.109C20.0623 168.758 23.259 170.147 27.815 171.278C31.3563 172.16 33.623 172.773 34.615 173.118C35.7747 173.453 36.8281 174.082 37.673 174.944C38.2621 175.659 38.5732 176.562 38.549 177.488C38.5364 178.28 38.3421 179.059 37.9811 179.764C37.6202 180.469 37.1022 181.082 36.467 181.556C35.079 182.716 33.0163 183.296 30.279 183.295C28.0565 183.414 25.8668 182.719 24.12 181.34C22.4298 179.713 21.3588 177.548 21.091 175.217L12.822 176.022C13.3793 180.741 15.084 184.33 17.936 186.79ZM52.967 170.072C52.8696 173.656 53.1488 177.24 53.8 180.766C54.2275 182.485 55.0426 184.083 56.183 185.438C57.515 187.018 59.2024 188.259 61.107 189.061C63.1837 189.99 66.232 190.454 70.252 190.455C73.009 190.551 75.7588 190.117 78.352 189.176C80.2505 188.439 81.9466 187.262 83.3 185.74C84.5765 184.217 85.4502 182.398 85.841 180.45C86.4081 176.905 86.6388 173.315 86.53 169.727V147.589H78.03V170.905C78.086 173.297 77.9613 175.69 77.657 178.064C77.4031 179.51 76.6154 180.807 75.45 181.7C73.8515 182.797 71.9278 183.319 69.994 183.18C68.0015 183.291 66.0281 182.741 64.381 181.614C63.0299 180.599 62.1035 179.118 61.781 177.459C61.5009 175.122 61.3952 172.768 61.465 170.416V147.589H52.965V170.072H52.967ZM104.019 189.736V172.142H105.742C107.184 172.079 108.627 172.238 110.02 172.616C111 172.987 111.877 173.588 112.575 174.37C114.199 176.337 115.696 178.406 117.055 180.565L123.199 189.736H133.364L128.224 181.514C126.814 179.097 125.195 176.807 123.386 174.672C122.049 173.278 120.516 172.086 118.835 171.135C122.529 170.602 125.305 169.303 127.162 167.24C129.056 165.079 130.052 162.276 129.947 159.405C129.988 157.06 129.349 154.754 128.109 152.764C126.976 150.905 125.25 149.482 123.209 148.725C121.17 147.968 117.901 147.589 113.403 147.589H95.52V189.736H104.019ZM104.019 154.719H110.652C114.097 154.719 116.163 154.767 116.852 154.863C118.082 155.015 119.216 155.601 120.052 156.516C120.841 157.482 121.245 158.706 121.186 159.952C121.227 161.069 120.927 162.172 120.325 163.114C119.752 163.957 118.913 164.585 117.942 164.897C116.927 165.242 114.381 165.414 110.304 165.414H104.016V154.719H104.019ZM156.707 189.736L171.782 147.589H162.766L152.458 178.783L141.805 147.589H132.588L147.634 189.736H156.707ZM184.358 189.736V147.589H175.858V189.736H184.358ZM212.267 189.736L227.342 147.589H218.326L208.018 178.783L197.365 147.589H188.148L203.194 189.736H212.267ZM248.417 147.589H239.43L223.03 189.736H232.045L235.52 180.163H252.346L256.021 189.736H265.266L248.417 147.589ZM238.138 173.062L243.823 157.422L249.623 173.062H238.138ZM299.638 189.736V182.636H278.508V147.936H270.008V189.736H299.64H299.638ZM350.288 174.236V179.584C348.882 180.649 347.33 181.506 345.679 182.128C343.976 182.811 342.159 183.167 340.324 183.177C338.682 183.236 337.048 182.93 335.539 182.281C334.03 181.633 332.683 180.657 331.596 179.426C329.375 176.924 328.264 173.172 328.265 168.17C328.265 163.532 329.361 160.034 331.553 157.676C332.691 156.488 334.07 155.557 335.599 154.947C337.127 154.337 338.768 154.062 340.411 154.14C342.595 154.061 344.746 154.693 346.541 155.94C348.182 157.145 349.362 158.873 349.886 160.84L358.327 159.259C357.635 155.626 355.613 152.382 352.657 150.159C349.718 147.965 345.636 146.868 340.411 146.868C336.932 146.751 333.475 147.472 330.332 148.968C326.896 150.687 324.077 153.429 322.264 156.817C320.379 160.424 319.431 164.448 319.507 168.517C319.471 172.398 320.315 176.237 321.977 179.744C323.543 183.098 326.125 185.874 329.356 187.679C332.886 189.592 336.856 190.549 340.87 190.453C344.385 190.443 347.866 189.775 351.135 188.484C353.988 187.487 356.617 185.938 358.873 183.927V167.137H340.557V174.237H350.291L350.288 174.236ZM366.654 170.068C366.557 173.652 366.836 177.236 367.487 180.762C367.915 182.481 368.73 184.079 369.87 185.434C371.202 187.014 372.889 188.255 374.794 189.057C376.871 189.986 379.919 190.45 383.94 190.451C386.697 190.547 389.447 190.113 392.04 189.172C393.94 188.436 395.638 187.258 396.993 185.736C398.269 184.213 399.143 182.394 399.534 180.446C400.101 176.901 400.332 173.311 400.223 169.723V147.589H391.723V170.905C391.779 173.297 391.654 175.69 391.35 178.064C391.095 179.511 390.306 180.809 389.139 181.701C387.54 182.798 385.617 183.32 383.683 183.181C381.69 183.292 379.717 182.742 378.07 181.615C376.719 180.599 375.793 179.119 375.47 177.46C375.19 175.123 375.084 172.769 375.154 170.417V147.589H366.654V170.072V170.068Z" fill="#E4C8FF"/>
</svg>
